<svg id="Flat" enable-background="new 0 0 512 512" height="512" viewBox="0 0 512 512" width="512" xmlns="http://www.w3.org/2000/svg"><g><path d="m471.6599121 188.5100098-7.6599121 11.4899902-8 16h-32l-8-16-7.6599121-11.4899902c-2.0700684-3.1101074-3.0800781-6.6501465-3.0800781-10.170166 0-4.7299805 1.8300781-9.4299316 5.369873-12.9697266 3.4401856-3.4401856 8.1000977-5.3701172 12.9702149-5.3701172h.7998047c4.8701172 0 9.5300293 1.9299316 12.9702148 5.3701172l2.6298828 2.6298828 2.6298828-2.6298828c3.4401856-3.4401856 8.1000977-5.3701172 12.9702149-5.3701172h.7998047c1.9702148 0 3.9101563.3100586 5.7402344.9299316.4299316.130127.8598633.2900391 1.2797852.4699707 2.2001953.9101563 4.2299805 2.25 5.9501953 3.9702148 6.1799315 6.1799317 7.1398925 15.8598634 2.2897948 23.1398927z" fill="#911d33"/><path d="m461.6599121 180.5100098-7.6599121 11.4899902v.0000153c-4.9029236 9.8058471-14.9252625 15.9999847-25.8885193 15.9999847h-8.1114807l-4-8-7.6599121-11.4899902c-2.0700684-3.1101074-3.0800781-6.6501465-3.0800781-10.170166 0-5.401413 2.3865356-10.7636719 6.9803467-14.4038086 3.3352661-2.642868 7.5444031-3.9360504 11.7998657-3.9360352h.3652954c4.8626709 0 9.5261841 1.9316864 12.9645996 5.3701172l2.6298828 2.6298828 2.6259155-2.6259155c3.440979-3.4409638 8.1079102-5.3740845 12.9741822-5.3740845h.7998047c1.9702148 0 3.9101563.3100586 5.7402344.9299316 3.5698241 5.9602051 3.5097655 13.5800782-.4802247 19.5800782z" fill="#e22526"/><path d="m440 168c-4.4182739 0-8-3.5817108-8-7.9999847v-9.3730621c0-12.4541016-4.8505859-24.1630859-13.6572266-32.9697266l11.3144531-11.3144531c11.8281251 11.8291015 18.3427735 27.555664 18.3427735 44.2841796v9.3730621c0 4.418274-3.5817261 7.9999848-8 7.9999848z" fill="#389a0c"/><path d="m440 136v-.0000305c4.7016602-18.8066025 21.5994263-31.9999695 40.9848022-31.9999695h7.0151978v.0000305c-4.7016602 18.8066025-21.5994263 31.9999695-40.9848022 31.9999695z" fill="#95d202"/><path d="m488 216-3.1599121 3.1599121c-14.4301758 14.4299316-33.880127 22.3200684-53.8901367 22.3200684-4.9699707 0-9.9799805-.4799805-14.9499512-1.4799805l-36.3300781 72.6699219c-1.1298828 2.25-2.829834 4.0800781-4.8898926 5.3500977s-4.4599609 1.9799804-6.9799805 1.9799804c-4.8100586 0-9.25-2.6098633-11.5900879-6.8198242l-28.2099609-73.1801758-16 16-8 56c29.6298828 29.6298828 40.8598633 72.9799805 29.3500977 113.2700195l-21.3500977 70.7299805h-112l-21.3500977-70.7299805c-2.9899902-10.4599609-4.4399414-21.1201172-4.4399414-31.6899414 0-30.1801758 11.8500977-59.6401367 33.7900391-81.5800781l-8-56-16-40-16-16-68.4399414 31.1098633-19.5600586 8.8901367 32 64 .8400879-1.6899414c2.1999512-4.3901367 5.5300293-7.9599609 9.5500488-10.4399414 4.0097656-2.4902344 8.709961-3.8701172 13.6098633-3.8701172v24h40l-1.3701172 1.3701172c-7.25 7.25-15.7797852 12.8999023-25.0698242 16.75-9.2800293 3.8398437-19.3200684 5.8798828-29.5600586 5.8798828l-25.0400391-8.7299805-66.2099609-74.5c-1.5200195-1.5300293-2.7099609-3.3200684-3.5100098-5.2800293-.8100586-1.9499511-1.2399902-4.0700683-1.2399902-6.2299804 0-5.7399902 3.0200195-11.0600586 7.9599609-14.0100098l122.3500977-64.9799805c7.1398926-3.3798828 14.6098633-5.9499512 22.2700195-7.6699219 7.6699219-1.7202148 15.5200196-2.6000976 23.4199219-2.6000976h121.5900879c13.4499512 0 25.4699707 8.4199219 30.0698242 21.0600586l11.0500488 56.0998535 5.1699219 26.2102051.1201172.6298828 32-40v-8l8-16 16 24z" fill="#fad6c6"/><path d="m232 184.0000305v-56.0000305l-24-8-8.8445892 4.4222946c-4.705597 2.3527985-9.8943787 3.5777054-15.1553955 3.5777054h-.0000458c-17.6730957 0-31.9999695-14.3268738-31.9999695-31.9999695v-.000061c0-17.6730957 14.3268738-31.9999695 31.9999695-31.9999695h.0000458c5.2610168 0 10.4497986 1.2249069 15.1553955 3.5777054l8.8445892 4.4222946v-8.0000381c0-22.0913697 17.9085846-39.9999619 39.9999542-39.9999619h8.0000458 16.0000305c22.0913696 0 39.9999695 17.9085922 39.9999695 39.9999619v.0000381 16l8 8-16 32-24 8v56.0000305c0 13.2548218-10.7451477 23.9999695-23.9999695 23.9999695h-.000061c-13.2548218 0-23.9999695-10.7451477-23.9999695-23.9999695z" fill="#fad6c6"/><path d="m280 144h-1.3725586c-.1672974 0-.3334961-.0007935-.4986267-.0023804-11.3021851-.1084137-21.5243225-6.7319031-26.3953552-16.9311295l-6.0762329-12.7227402c8.8061523 8.8066407 20.5151367 13.6562501 32.9702148 13.6562501h1.3725586z" fill="#eaaa94"/><path d="m248 312h16v16h-16z" fill="#eaaa94"/><g><path d="m178.5629883 362.2358398c-5.720459 20.2651367-5.9057617 42.0644531.0856934 63.034668l21.3513183 70.7294922h112l21.3513184-70.7294922c5.9914551-20.9702148 5.8061523-42.7695313.0856934-63.034668-44.6166993 37.9448243-110.2573243 37.9448243-154.8740235 0z" fill="#f48da1"/><path d="m192 336v-3.9501953c-5.9377441 9.4165039-10.4458008 19.5893555-13.4370117 30.1860352 44.6166992 37.9448242 110.2573242 37.9448242 154.8740234 0-2.9912109-10.5966797-7.4992676-20.7695313-13.4370117-30.1860352v3.9501953c-35.3461914 35.3461914-92.6538086 35.3461914-128 0z" fill="#efeeef"/><path d="m272 248c-8.8364258-8.8366699-23.1635742-8.8366699-32 0-11.1313477 11.1313477-28.0695801 12.9101563-41.0620117 5.3452148l1.0620117 2.6547852 2.4804688 17.3637695c33.4060059 17.9960938 73.6330566 17.9960938 107.0390625 0l2.4804687-17.3637695 8-8c-13.2548828 13.2548828-34.7451172 13.2548828-48 0z" fill="#efeeef"/><path d="m320 200-8-8v-40h-24-8v32c0 13.2548828-10.7451172 24-24 24s-24-10.7451172-24-24v-32h-32v40l-8 8c-4.3730469 4.3730469-7.2937012 9.6445313-8.78125 15.21875-3.0212402 11.3217773-.1005859 23.8994141 8.78125 32.78125 2.123291 2.123291 4.4597168 3.9023438 6.9379883 5.3452148 12.9924316 7.5649415 29.930664 5.7861329 41.0620117-5.3452148 8.8364258-8.8366699 23.1635742-8.8366699 32 0 13.2548828 13.2548828 34.7451172 13.2548828 48 0s13.2548828-34.7451172 0-48z" fill="#f48da1"/></g><path d="m368 256-9.8400879 19.5800781 4.5500488-46.420166z" fill="#eaaa94"/><g><g><path d="m223.5185547 106.3457031c-8.0283203-5.3522949-9.1530762-16.7111816-2.3303223-23.5339355 5.9711914-5.9711914 15.6523438-5.9711914 21.6235352 0l5.1882324 5.1882324c4.2480469-21.2397461 26.1501465-33.9499512 46.6987305-27.1003418l17.3012695 3.1003418c0-22.0913086-17.9086914-40-40-40h-16-8c-22.0913086 0-40 17.9086914-40 40v8l-8.8447266-4.4223633c-4.7055664-2.3527832-9.8942871-3.5776367-15.1552734-3.5776367-17.6730957 0-32 14.3269043-32 32 0 17.6730957 14.3269043 32 32 32 5.2609863 0 10.449707-1.2248535 15.1552734-3.5776367l8.8447266-4.4223633 24 8v-16z" fill="#b71e71"/></g></g><path d="m208 80.0009766c-2.9609375 0-5.7695313-1.6513672-7.1552734-4.4238281l-5.2666016-10.5341797c-5.2568359-10.5117188-15.8242187-17.0429688-27.578125-17.0429688v-16c9.7216797 0 18.9101563 2.9423828 26.5517578 8.2001953-1.2148437-4.8027344-5.515625-8.2001953-10.5517578-8.2001953v-16c13.1972656 0 24.3515625 9.4482422 26.5214844 22.4667969l5.3701172 32.2177734c.6503906 3.9052734-1.6533203 7.6992188-5.4179688 8.9238281-.8173828.265625-1.6513672.3925782-2.4736328.3925782z" fill="#b71e71"/><path d="m284.4375 422.65625-8.875-13.3125-19.5625 13.0410156-19.5625-13.0410156-8.875 13.3125 20.4375 13.625v59.71875h16v-59.71875z" fill="#dd738c"/><path d="m99.5600586 231.1098633-19.5600586 8.8901367-8-16z" fill="#eaaa94"/><circle cx="424" cy="176" fill="#efeeef" r="8"/></g></svg>